<mxfile host="app.diagrams.net" modified="2022-08-30T13:35:45.603Z" agent="5.0 (Windows NT 10.0; Win64; x64) AppleWebKit/537.36 (KHTML, like Gecko) Chrome/104.0.0.0 Safari/537.36" etag="UEfa_2GL4E0Hkq_eTqKb" version="20.2.7" type="github">
  <diagram id="J9L-LrRcikpUgU2vO-gf" name="Page-1">
    <mxGraphModel dx="1483" dy="816" grid="1" gridSize="10" guides="1" tooltips="1" connect="1" arrows="1" fold="1" page="1" pageScale="1" pageWidth="850" pageHeight="1100" background="none" math="0" shadow="0">
      <root>
        <mxCell id="0" />
        <mxCell id="1" parent="0" />
        <mxCell id="bL8H0yXvn-4YBfQXukfM-3" style="edgeStyle=orthogonalEdgeStyle;rounded=0;orthogonalLoop=1;jettySize=auto;html=1;entryX=1;entryY=0.5;entryDx=0;entryDy=0;" edge="1" parent="1" source="bL8H0yXvn-4YBfQXukfM-1" target="bL8H0yXvn-4YBfQXukfM-2">
          <mxGeometry relative="1" as="geometry" />
        </mxCell>
        <mxCell id="bL8H0yXvn-4YBfQXukfM-11" style="edgeStyle=orthogonalEdgeStyle;rounded=0;orthogonalLoop=1;jettySize=auto;html=1;" edge="1" parent="1" source="bL8H0yXvn-4YBfQXukfM-1" target="bL8H0yXvn-4YBfQXukfM-4">
          <mxGeometry relative="1" as="geometry" />
        </mxCell>
        <mxCell id="bL8H0yXvn-4YBfQXukfM-14" style="edgeStyle=orthogonalEdgeStyle;rounded=0;orthogonalLoop=1;jettySize=auto;html=1;entryX=1;entryY=0.5;entryDx=0;entryDy=0;" edge="1" parent="1" source="bL8H0yXvn-4YBfQXukfM-1" target="bL8H0yXvn-4YBfQXukfM-12">
          <mxGeometry relative="1" as="geometry" />
        </mxCell>
        <mxCell id="bL8H0yXvn-4YBfQXukfM-18" style="edgeStyle=orthogonalEdgeStyle;rounded=0;orthogonalLoop=1;jettySize=auto;html=1;entryX=0;entryY=0.5;entryDx=0;entryDy=0;" edge="1" parent="1" source="bL8H0yXvn-4YBfQXukfM-1" target="bL8H0yXvn-4YBfQXukfM-16">
          <mxGeometry relative="1" as="geometry" />
        </mxCell>
        <mxCell id="bL8H0yXvn-4YBfQXukfM-20" style="edgeStyle=orthogonalEdgeStyle;rounded=0;orthogonalLoop=1;jettySize=auto;html=1;exitX=0;exitY=0;exitDx=0;exitDy=0;entryX=1;entryY=0.5;entryDx=0;entryDy=0;" edge="1" parent="1" source="bL8H0yXvn-4YBfQXukfM-1" target="bL8H0yXvn-4YBfQXukfM-19">
          <mxGeometry relative="1" as="geometry" />
        </mxCell>
        <mxCell id="bL8H0yXvn-4YBfQXukfM-1" value="STUDENTS" style="rounded=1;arcSize=10;whiteSpace=wrap;html=1;align=center;fillColor=#d5e8d4;strokeColor=#82b366;" vertex="1" parent="1">
          <mxGeometry x="195" y="330" width="100" height="40" as="geometry" />
        </mxCell>
        <mxCell id="bL8H0yXvn-4YBfQXukfM-2" value="ID" style="ellipse;whiteSpace=wrap;html=1;align=center;fontStyle=4;fillColor=#f8cecc;strokeColor=#b85450;" vertex="1" parent="1">
          <mxGeometry x="35" y="330" width="100" height="40" as="geometry" />
        </mxCell>
        <mxCell id="bL8H0yXvn-4YBfQXukfM-9" style="edgeStyle=orthogonalEdgeStyle;rounded=0;orthogonalLoop=1;jettySize=auto;html=1;entryX=1;entryY=0.5;entryDx=0;entryDy=0;" edge="1" parent="1" source="bL8H0yXvn-4YBfQXukfM-4" target="bL8H0yXvn-4YBfQXukfM-8">
          <mxGeometry relative="1" as="geometry" />
        </mxCell>
        <mxCell id="bL8H0yXvn-4YBfQXukfM-10" style="edgeStyle=orthogonalEdgeStyle;rounded=0;orthogonalLoop=1;jettySize=auto;html=1;entryX=0;entryY=0.5;entryDx=0;entryDy=0;" edge="1" parent="1" source="bL8H0yXvn-4YBfQXukfM-4" target="bL8H0yXvn-4YBfQXukfM-7">
          <mxGeometry relative="1" as="geometry" />
        </mxCell>
        <mxCell id="bL8H0yXvn-4YBfQXukfM-4" value="NAME" style="ellipse;whiteSpace=wrap;html=1;align=center;fillColor=#b0e3e6;strokeColor=#0e8088;" vertex="1" parent="1">
          <mxGeometry x="195" y="420" width="100" height="40" as="geometry" />
        </mxCell>
        <mxCell id="bL8H0yXvn-4YBfQXukfM-7" value="LAST_NAME" style="ellipse;whiteSpace=wrap;html=1;align=center;fillColor=#fff2cc;strokeColor=#d6b656;" vertex="1" parent="1">
          <mxGeometry x="295" y="530" width="100" height="40" as="geometry" />
        </mxCell>
        <mxCell id="bL8H0yXvn-4YBfQXukfM-8" value="FIRST_NAME" style="ellipse;whiteSpace=wrap;html=1;align=center;fillColor=#fff2cc;strokeColor=#d6b656;" vertex="1" parent="1">
          <mxGeometry x="95" y="530" width="100" height="40" as="geometry" />
        </mxCell>
        <mxCell id="bL8H0yXvn-4YBfQXukfM-12" value="DOB" style="ellipse;whiteSpace=wrap;html=1;align=center;fillColor=#fff2cc;strokeColor=#d6b656;" vertex="1" parent="1">
          <mxGeometry x="95" y="190" width="100" height="40" as="geometry" />
        </mxCell>
        <mxCell id="bL8H0yXvn-4YBfQXukfM-16" value="AGE" style="ellipse;whiteSpace=wrap;html=1;align=center;dashed=1;fillColor=#bac8d3;strokeColor=#23445d;" vertex="1" parent="1">
          <mxGeometry x="295" y="190" width="100" height="40" as="geometry" />
        </mxCell>
        <mxCell id="bL8H0yXvn-4YBfQXukfM-19" value="EMAIL" style="ellipse;shape=doubleEllipse;margin=3;whiteSpace=wrap;html=1;align=center;fillColor=#e1d5e7;strokeColor=#9673a6;" vertex="1" parent="1">
          <mxGeometry x="25" y="240" width="100" height="40" as="geometry" />
        </mxCell>
        <mxCell id="bL8H0yXvn-4YBfQXukfM-23" style="edgeStyle=orthogonalEdgeStyle;rounded=0;orthogonalLoop=1;jettySize=auto;html=1;entryX=0.5;entryY=1;entryDx=0;entryDy=0;" edge="1" parent="1" source="bL8H0yXvn-4YBfQXukfM-21" target="bL8H0yXvn-4YBfQXukfM-22">
          <mxGeometry relative="1" as="geometry" />
        </mxCell>
        <mxCell id="bL8H0yXvn-4YBfQXukfM-26" style="edgeStyle=orthogonalEdgeStyle;rounded=0;orthogonalLoop=1;jettySize=auto;html=1;entryX=0;entryY=0.5;entryDx=0;entryDy=0;" edge="1" parent="1" source="bL8H0yXvn-4YBfQXukfM-21" target="bL8H0yXvn-4YBfQXukfM-25">
          <mxGeometry relative="1" as="geometry" />
        </mxCell>
        <mxCell id="bL8H0yXvn-4YBfQXukfM-28" style="edgeStyle=orthogonalEdgeStyle;rounded=0;orthogonalLoop=1;jettySize=auto;html=1;exitX=0;exitY=0;exitDx=0;exitDy=0;entryX=1;entryY=0.5;entryDx=0;entryDy=0;" edge="1" parent="1" source="bL8H0yXvn-4YBfQXukfM-21" target="bL8H0yXvn-4YBfQXukfM-27">
          <mxGeometry relative="1" as="geometry" />
        </mxCell>
        <mxCell id="bL8H0yXvn-4YBfQXukfM-21" value="BATCH" style="rounded=1;arcSize=10;whiteSpace=wrap;html=1;align=center;fillColor=#d5e8d4;strokeColor=#82b366;" vertex="1" parent="1">
          <mxGeometry x="545" y="330" width="100" height="40" as="geometry" />
        </mxCell>
        <mxCell id="bL8H0yXvn-4YBfQXukfM-22" value="ID" style="ellipse;whiteSpace=wrap;html=1;align=center;fontStyle=4;fillColor=#f8cecc;strokeColor=#b85450;" vertex="1" parent="1">
          <mxGeometry x="545" y="190" width="100" height="40" as="geometry" />
        </mxCell>
        <mxCell id="bL8H0yXvn-4YBfQXukfM-25" value="NAME" style="ellipse;whiteSpace=wrap;html=1;align=center;fillColor=#fff2cc;strokeColor=#d6b656;" vertex="1" parent="1">
          <mxGeometry x="725" y="330" width="100" height="40" as="geometry" />
        </mxCell>
        <mxCell id="bL8H0yXvn-4YBfQXukfM-27" value="START_DATE" style="ellipse;whiteSpace=wrap;html=1;align=center;fillColor=#fff2cc;strokeColor=#d6b656;" vertex="1" parent="1">
          <mxGeometry x="420" y="240" width="100" height="40" as="geometry" />
        </mxCell>
        <mxCell id="bL8H0yXvn-4YBfQXukfM-29" value="JOINS" style="shape=rhombus;perimeter=rhombusPerimeter;whiteSpace=wrap;html=1;align=center;fillColor=#dae8fc;strokeColor=#6c8ebf;" vertex="1" parent="1">
          <mxGeometry x="370" y="320" width="120" height="60" as="geometry" />
        </mxCell>
        <mxCell id="bL8H0yXvn-4YBfQXukfM-30" value="" style="endArrow=none;html=1;rounded=0;exitX=1;exitY=0.5;exitDx=0;exitDy=0;entryX=0;entryY=0.5;entryDx=0;entryDy=0;" edge="1" parent="1" source="bL8H0yXvn-4YBfQXukfM-1" target="bL8H0yXvn-4YBfQXukfM-29">
          <mxGeometry relative="1" as="geometry">
            <mxPoint x="335" y="390" as="sourcePoint" />
            <mxPoint x="495" y="390" as="targetPoint" />
          </mxGeometry>
        </mxCell>
        <mxCell id="bL8H0yXvn-4YBfQXukfM-31" value="1" style="resizable=0;html=1;align=right;verticalAlign=bottom;" connectable="0" vertex="1" parent="bL8H0yXvn-4YBfQXukfM-30">
          <mxGeometry x="1" relative="1" as="geometry" />
        </mxCell>
        <mxCell id="bL8H0yXvn-4YBfQXukfM-32" value="" style="endArrow=none;html=1;rounded=0;entryX=0;entryY=0.5;entryDx=0;entryDy=0;exitX=1;exitY=0.5;exitDx=0;exitDy=0;" edge="1" parent="1" source="bL8H0yXvn-4YBfQXukfM-29" target="bL8H0yXvn-4YBfQXukfM-21">
          <mxGeometry relative="1" as="geometry">
            <mxPoint x="335" y="390" as="sourcePoint" />
            <mxPoint x="495" y="390" as="targetPoint" />
          </mxGeometry>
        </mxCell>
        <mxCell id="bL8H0yXvn-4YBfQXukfM-33" value="1" style="resizable=0;html=1;align=right;verticalAlign=bottom;" connectable="0" vertex="1" parent="bL8H0yXvn-4YBfQXukfM-32">
          <mxGeometry x="1" relative="1" as="geometry" />
        </mxCell>
        <mxCell id="bL8H0yXvn-4YBfQXukfM-37" style="edgeStyle=orthogonalEdgeStyle;rounded=0;orthogonalLoop=1;jettySize=auto;html=1;entryX=1;entryY=0.5;entryDx=0;entryDy=0;" edge="1" parent="1" source="bL8H0yXvn-4YBfQXukfM-34" target="bL8H0yXvn-4YBfQXukfM-36">
          <mxGeometry relative="1" as="geometry" />
        </mxCell>
        <mxCell id="bL8H0yXvn-4YBfQXukfM-38" style="edgeStyle=orthogonalEdgeStyle;rounded=0;orthogonalLoop=1;jettySize=auto;html=1;" edge="1" parent="1" source="bL8H0yXvn-4YBfQXukfM-34" target="bL8H0yXvn-4YBfQXukfM-35">
          <mxGeometry relative="1" as="geometry" />
        </mxCell>
        <mxCell id="bL8H0yXvn-4YBfQXukfM-40" style="edgeStyle=orthogonalEdgeStyle;rounded=0;orthogonalLoop=1;jettySize=auto;html=1;entryX=0;entryY=0.5;entryDx=0;entryDy=0;" edge="1" parent="1" source="bL8H0yXvn-4YBfQXukfM-34" target="bL8H0yXvn-4YBfQXukfM-39">
          <mxGeometry relative="1" as="geometry" />
        </mxCell>
        <mxCell id="bL8H0yXvn-4YBfQXukfM-34" value="MENTOR" style="rounded=1;arcSize=10;whiteSpace=wrap;html=1;align=center;fillColor=#d5e8d4;strokeColor=#82b366;" vertex="1" parent="1">
          <mxGeometry x="545" y="760" width="100" height="40" as="geometry" />
        </mxCell>
        <mxCell id="bL8H0yXvn-4YBfQXukfM-35" value="NAME" style="ellipse;whiteSpace=wrap;html=1;align=center;fillColor=#fff2cc;strokeColor=#d6b656;" vertex="1" parent="1">
          <mxGeometry x="545" y="900" width="100" height="40" as="geometry" />
        </mxCell>
        <mxCell id="bL8H0yXvn-4YBfQXukfM-36" value="ID" style="ellipse;whiteSpace=wrap;html=1;align=center;fontStyle=4;fillColor=#f8cecc;strokeColor=#b85450;" vertex="1" parent="1">
          <mxGeometry x="345" y="760" width="100" height="40" as="geometry" />
        </mxCell>
        <mxCell id="bL8H0yXvn-4YBfQXukfM-39" value="EMAIL" style="ellipse;whiteSpace=wrap;html=1;align=center;fillColor=#fff2cc;strokeColor=#d6b656;" vertex="1" parent="1">
          <mxGeometry x="725" y="760" width="100" height="40" as="geometry" />
        </mxCell>
        <mxCell id="bL8H0yXvn-4YBfQXukfM-41" value="HAS A" style="shape=rhombus;perimeter=rhombusPerimeter;whiteSpace=wrap;html=1;align=center;fillColor=#dae8fc;strokeColor=#6c8ebf;" vertex="1" parent="1">
          <mxGeometry x="535" y="600" width="120" height="60" as="geometry" />
        </mxCell>
        <mxCell id="bL8H0yXvn-4YBfQXukfM-42" value="" style="endArrow=none;html=1;rounded=0;entryX=0.5;entryY=1;entryDx=0;entryDy=0;exitX=0.5;exitY=0;exitDx=0;exitDy=0;" edge="1" parent="1" source="bL8H0yXvn-4YBfQXukfM-34" target="bL8H0yXvn-4YBfQXukfM-41">
          <mxGeometry relative="1" as="geometry">
            <mxPoint x="335" y="590" as="sourcePoint" />
            <mxPoint x="495" y="590" as="targetPoint" />
          </mxGeometry>
        </mxCell>
        <mxCell id="bL8H0yXvn-4YBfQXukfM-43" value="1" style="resizable=0;html=1;align=right;verticalAlign=bottom;" connectable="0" vertex="1" parent="bL8H0yXvn-4YBfQXukfM-42">
          <mxGeometry x="1" relative="1" as="geometry" />
        </mxCell>
        <mxCell id="bL8H0yXvn-4YBfQXukfM-44" value="" style="endArrow=none;html=1;rounded=0;entryX=0.5;entryY=1;entryDx=0;entryDy=0;exitX=0.5;exitY=0;exitDx=0;exitDy=0;" edge="1" parent="1" source="bL8H0yXvn-4YBfQXukfM-41" target="bL8H0yXvn-4YBfQXukfM-21">
          <mxGeometry relative="1" as="geometry">
            <mxPoint x="335" y="590" as="sourcePoint" />
            <mxPoint x="495" y="590" as="targetPoint" />
          </mxGeometry>
        </mxCell>
        <mxCell id="bL8H0yXvn-4YBfQXukfM-45" value="1" style="resizable=0;html=1;align=right;verticalAlign=bottom;" connectable="0" vertex="1" parent="bL8H0yXvn-4YBfQXukfM-44">
          <mxGeometry x="1" relative="1" as="geometry" />
        </mxCell>
      </root>
    </mxGraphModel>
  </diagram>
</mxfile>
